<svg xmlns="http://www.w3.org/2000/svg" xmlns:xlink="http://www.w3.org/1999/xlink" viewBox="0 0 179.5 179.5"><defs><style>.cls-1{fill:#fff;}.cls-2{fill:url(#linear-gradient);}.cls-3{fill:url(#linear-gradient-2);}.cls-4{fill:url(#linear-gradient-3);}.cls-5{fill:url(#linear-gradient-4);}.cls-6{fill:url(#linear-gradient-5);}.cls-7{fill:url(#linear-gradient-6);}.cls-8{fill:url(#linear-gradient-7);}</style><linearGradient id="linear-gradient" x1="58.88" y1="83.92" x2="28.11" y2="143.07" gradientUnits="userSpaceOnUse"><stop offset="0" stop-color="#221f1f"/><stop offset="1" stop-color="#d73651"/></linearGradient><linearGradient id="linear-gradient-2" x1="98.38" y1="79.31" x2="83.06" y2="28.42" xlink:href="#linear-gradient"/><linearGradient id="linear-gradient-3" x1="87.81" y1="94.38" x2="138.47" y2="50.55" xlink:href="#linear-gradient"/><linearGradient id="linear-gradient-4" x1="92.89" y1="89.56" x2="101.85" y2="157.19" xlink:href="#linear-gradient"/><linearGradient id="linear-gradient-5" x1="104.04" y1="90.11" x2="86.61" y2="57.83" xlink:href="#linear-gradient"/><linearGradient id="linear-gradient-6" x1="83.77" y1="84.53" x2="153.75" y2="118.93" xlink:href="#linear-gradient"/><linearGradient id="linear-gradient-7" x1="98.51" y1="85.75" x2="27.58" y2="64.78" xlink:href="#linear-gradient"/></defs><g id="Layer_2" data-name="Layer 2"><g id="Layer_1-2" data-name="Layer 1"><circle class="cls-1" cx="89.7" cy="89.7" r="89.7"/><path class="cls-2" d="M21.4,135.4A97.6,97.6,0,0,1,54.9,84.8a96.9,96.9,0,0,0-17.1,39,100.9,100.9,0,0,0-1.3,28.4A86.1,86.1,0,0,1,21.4,135.4Z"/><path class="cls-3" d="M103.6,57.6a28.4,28.4,0,0,1,18.1,6.5,91.8,91.8,0,0,0,2.6-13.5c-2.2-17.9-13.2-33.1-18.3-39.3A80.4,80.4,0,0,0,45.8,22.4c6.4,1.1,14.5,4.5,22.8,9.5,12.1,7.4,22.3,17,28,26.5A35.8,35.8,0,0,1,103.6,57.6Z"/><path class="cls-4" d="M167.4,64.4c-9.7,32.3-45.6,57.8-79.7,37.3,7.8-1.9,16.7-6.5,22.5-12.5h0c18.7-15.7,20.2-61.9,10.3-75.6A81.9,81.9,0,0,1,167.4,64.4Z"/><path class="cls-5" d="M139.5,154.2a81.5,81.5,0,0,1-64.8,15.9c-17-19.7-18.8-53.1-2.8-74.7h0a30.9,30.9,0,0,1,2.6-3.7l1-1.1a20.9,20.9,0,0,0,1.4,1.7C71.5,124.4,117.5,156.1,139.5,154.2Z"/><path class="cls-6" d="M76.6,89.5a52.7,52.7,0,0,0,10.7,9.4,48.5,48.5,0,0,0,18.6-9.6h0l.5-.5c7.9-6.4,11-13,13.3-19.8C103.1,69.7,88.6,76.6,76.6,89.5Z"/><path class="cls-7" d="M78.6,97.2c-.2,12.2,7.2,25.4,19.7,34.6,14.4,10.7,33.7,14.8,50.5,10.9a79.9,79.9,0,0,0,18.9-38h0a79.4,79.4,0,0,0,1.4-19.5c-10.8,13.6-30.9,24.2-50.3,26C102.7,112.7,87.7,105.7,78.6,97.2Z"/><path class="cls-8" d="M82,65.3a79.4,79.4,0,0,1,15.2-4.7l-1.6.3A59.6,59.6,0,0,0,89,51.2,97.5,97.5,0,0,0,76.6,39.3c-18.3-8.9-39.4-6.5-48-5A81.4,81.4,0,0,0,8,99.7c3.7-5.4,15.3-19.8,39-26.6l-3.1-.7c-20-3.9-20.2-19.3-20.2-19.3s10.1,7.7,35.8,1.6,32,3.5,32,3.5C85.5,58.2,82.2,64.9,82,65.3ZM62.8,43a50.1,50.1,0,0,0-6,1.3,45.3,45.3,0,0,1-14-8.7A117.5,117.5,0,0,0,62.8,43Zm-12,2.6A65,65,0,0,1,40,46a46.9,46.9,0,0,1-9.6-5.1A115.8,115.8,0,0,0,50.8,45.6ZM59.7,50c-13.2,3.9-24.2,3.5-35.9-2.1,0,0,19.3,3.4,30.7,0S75.2,45.5,80.8,49C80.8,49,72.9,46.1,59.7,50Z"/></g></g></svg>