<?xml version="1.0" standalone="no"?>
<!DOCTYPE svg PUBLIC "-//W3C//DTD SVG 20010904//EN"
 "http://www.w3.org/TR/2001/REC-SVG-20010904/DTD/svg10.dtd">
<svg version="1.0" xmlns="http://www.w3.org/2000/svg"
 width="700.000000pt" height="700.000000pt" viewBox="0 0 700.000000 700.000000"
 preserveAspectRatio="xMidYMid meet">
<metadata>
Created by potrace 1.14, written by Peter Selinger 2001-2017
</metadata>
<g transform="translate(0.000000,700.000000) scale(0.100000,-0.100000)"
fill="#000000" stroke="none">
<path d="M3339 6996 c-2 -2 -43 -7 -90 -10 -47 -4 -94 -8 -105 -10 -10 -2 -46
-7 -79 -10 -33 -4 -67 -9 -75 -11 -8 -2 -26 -6 -40 -9 -14 -2 -43 -7 -65 -11
-62 -11 -243 -55 -289 -70 -23 -7 -79 -25 -126 -39 -47 -15 -94 -31 -105 -35
-11 -5 -73 -30 -137 -56 -139 -56 -302 -137 -453 -225 l-109 -64 34 -9 c367
-92 724 -255 1105 -505 113 -74 290 -203 305 -222 3 -3 16 -13 29 -22 67 -46
378 -345 461 -443 57 -68 161 -205 210 -279 57 -85 49 -81 137 -62 45 10 150
18 226 18 185 -1 371 -44 532 -124 82 -41 225 -137 225 -151 0 -34 22 20 44
108 69 275 95 504 68 600 -6 22 -14 56 -17 75 -3 19 -8 43 -11 52 -3 9 -6 25
-8 35 -37 192 -184 549 -338 821 -58 102 -227 365 -267 414 -6 7 -39 49 -73
93 l-63 80 -90 17 c-50 9 -115 19 -145 23 -53 6 -75 9 -150 20 -40 7 -536 16
-541 11z"/>
<path d="M4916 6793 c81 -122 174 -412 199 -622 4 -30 8 -63 11 -74 2 -11 6
-54 10 -96 3 -42 8 -92 10 -111 5 -45 5 -426 0 -505 -6 -94 -17 -225 -21 -243
-1 -10 -6 -42 -10 -72 -8 -69 -14 -108 -20 -140 -3 -14 -7 -41 -10 -60 -15
-89 -71 -316 -106 -426 -113 -353 -260 -621 -446 -809 -76 -77 -216 -204 -273
-247 -188 -142 -432 -265 -675 -342 l-105 -32 92 -51 c214 -117 464 -204 678
-238 25 -4 52 -9 60 -10 46 -8 207 -17 285 -17 135 2 287 19 394 43 25 6 57
13 71 15 52 10 289 93 378 134 280 126 510 287 748 524 183 182 314 346 429
536 22 36 46 75 52 85 60 96 192 393 238 533 20 61 19 66 -40 222 -182 482
-448 893 -820 1266 -207 208 -396 358 -650 517 -115 72 -462 247 -489 247 -5
0 0 -12 10 -27z"/>
<path d="M1627 5994 c-1 -1 -81 -4 -178 -8 -97 -3 -182 -8 -190 -10 -8 -3 -48
-7 -89 -10 -41 -4 -115 -13 -163 -21 -87 -14 -90 -15 -130 -62 -194 -219 -380
-500 -511 -768 -149 -306 -230 -546 -302 -890 -2 -11 -7 -40 -10 -65 -3 -25
-7 -47 -9 -50 -4 -6 -14 -85 -30 -230 -13 -119 -13 -557 0 -680 10 -87 18
-102 38 -64 9 16 26 40 39 54 13 14 35 41 50 60 76 99 231 256 373 376 215
182 510 361 795 482 90 38 384 142 392 139 2 -1 1 1 -2 5 -3 4 -59 19 -125 34
-287 64 -473 158 -630 319 -124 128 -208 295 -232 468 -5 34 7 51 21 28 16
-25 219 -95 346 -120 98 -19 114 -21 205 -28 278 -21 558 5 934 88 102 23 193
42 201 44 8 1 33 6 55 10 248 45 549 53 730 20 165 -31 310 -97 400 -182 l29
-28 -52 -11 c-80 -18 -155 -61 -217 -123 -50 -50 -139 -171 -131 -178 1 -2 49
15 105 37 124 48 288 102 394 129 43 11 80 21 82 23 5 5 -108 190 -157 256
-37 51 -77 100 -158 196 -141 167 -442 446 -526 489 -190 97 -555 201 -829
237 -49 6 -103 13 -120 15 -43 6 -393 23 -398 19z m33 -176 c72 -33 262 -109
400 -160 36 -14 124 -42 197 -63 l132 -39 -122 -28 c-119 -28 -123 -28 -167
-12 -63 24 -222 108 -301 160 -111 72 -291 216 -234 186 11 -5 54 -25 95 -44z
m-574 -199 c84 -29 282 -83 394 -108 154 -34 151 -34 282 -52 83 -12 99 -19
60 -26 -9 -2 -105 -6 -212 -8 l-196 -4 -129 64 c-112 54 -282 155 -264 155 3
0 32 -9 65 -21z m1729 -199 c128 -21 195 -40 282 -82 69 -32 78 -44 22 -28
-108 31 -421 35 -569 6 -14 -3 -38 -7 -55 -9 -16 -3 -52 -10 -80 -17 -66 -16
-68 -16 -85 -23 -60 -22 -359 -91 -446 -103 -27 -3 -58 -9 -69 -11 -11 -3
-110 -7 -220 -8 -241 -4 -359 11 -565 72 -85 25 -278 99 -293 113 -7 6 55 0
141 -14 15 -3 63 -8 107 -12 44 -3 82 -8 85 -9 9 -6 299 -19 405 -19 55 0 147
3 205 7 92 6 143 12 264 33 17 3 77 18 135 34 165 45 276 66 411 76 47 4 86 7
87 8 7 5 187 -6 238 -14z"/>
<path d="M4778 4424 c-2 -1 -39 -5 -83 -8 -44 -3 -105 -11 -135 -16 -30 -5
-70 -12 -89 -15 -19 -3 -37 -7 -40 -9 -3 -2 -22 -7 -41 -10 -65 -10 -219 -55
-317 -92 -296 -110 -550 -258 -793 -462 -95 -80 -280 -259 -280 -272 0 -3 44
-51 98 -106 103 -106 209 -195 306 -260 l58 -38 131 44 c238 80 458 201 652
357 277 223 449 453 568 758 55 144 55 135 8 133 -23 -1 -42 -2 -43 -4z"/>
<path d="M1949 3657 c-311 -262 -610 -602 -825 -942 -198 -311 -361 -661 -469
-1009 l-45 -146 68 -94 c150 -209 340 -418 521 -575 l62 -54 -8 109 c-14 207
-8 565 11 734 3 19 7 60 11 91 3 31 7 65 9 75 4 20 18 109 21 134 30 210 151
637 240 845 7 17 22 54 34 83 93 228 298 594 427 765 24 31 40 57 36 57 -4 -1
-46 -33 -93 -73z"/>
<path d="M6952 3677 c-200 -250 -578 -539 -951 -726 -74 -38 -294 -134 -336
-147 -5 -2 -71 -24 -145 -49 -190 -64 -368 -106 -590 -139 -171 -26 -388 -26
-600 0 -85 10 -273 56 -393 95 -285 95 -558 247 -786 439 l-73 62 6 -89 c25
-343 155 -665 395 -973 96 -123 299 -325 394 -392 17 -12 37 -27 42 -34 23
-26 249 -167 365 -228 319 -165 626 -259 1000 -304 120 -14 631 -5 660 13 3 2
26 6 50 10 25 3 59 10 77 15 17 4 34 6 36 4 6 -6 107 109 178 202 195 254 357
541 477 844 60 153 137 405 159 520 2 14 8 44 14 68 5 23 12 59 14 80 3 20 8
48 11 62 10 53 12 67 19 135 4 39 9 81 11 95 7 61 13 480 6 479 -4 0 -22 -19
-40 -42z"/>
<path d="M2926 3469 c-100 -118 -263 -365 -341 -521 -116 -230 -210 -536 -240
-783 -4 -27 -8 -57 -10 -65 -22 -81 -22 -548 0 -659 2 -13 7 -49 11 -80 3 -31
8 -65 10 -76 3 -11 11 -51 19 -90 21 -105 22 -108 46 -192 59 -210 145 -417
247 -592 43 -73 140 -221 151 -231 3 -3 26 -31 50 -62 34 -45 50 -59 77 -63
19 -3 50 -8 71 -11 20 -3 55 -8 77 -10 23 -2 55 -7 73 -9 174 -25 537 -25 788
1 43 4 215 32 308 49 313 59 744 222 1040 394 166 96 403 258 393 268 -3 3
-51 6 -108 8 -86 2 -186 16 -293 39 -195 44 -505 171 -747 306 -180 101 -420
267 -573 395 -108 90 -139 119 -270 250 -306 305 -515 624 -633 970 -23 67
-51 171 -58 219 -3 17 -8 51 -12 76 -9 57 -9 345 0 386 6 26 2 39 -20 68 -15
19 -29 35 -32 36 -3 0 -14 -9 -24 -21z"/>
</g>
</svg>
